<svg xmlns="http://www.w3.org/2000/svg" xmlns:xlink="http://www.w3.org/1999/xlink" width="394" height="220" viewBox="0 0 394 220">
  <defs>
    <linearGradient id="linear-gradient" x1="-0.002" y1="0.971" x2="1" y2="0.971" gradientUnits="objectBoundingBox">
      <stop offset="0" stop-color="#a6ce3c"/>
      <stop offset="0.478" stop-color="#98cc67"/>
      <stop offset="1" stop-color="#86ca90"/>
    </linearGradient>
    <linearGradient id="linear-gradient-2" x1="0.002" y1="0.97" x2="1.005" y2="0.97" gradientUnits="objectBoundingBox">
      <stop offset="0" stop-color="#59c7d9"/>
      <stop offset="0.478" stop-color="#73c9b8"/>
      <stop offset="1" stop-color="#86ca90"/>
    </linearGradient>
    <clipPath id="clip-zone-logo">
      <rect width="394" height="220"/>
    </clipPath>
  </defs>
  <g id="zone-logo" clip-path="url(#clip-zone-logo)">
    <rect width="394" height="220" fill="#fff"/>
    <g id="Group_15" data-name="Group 15" transform="translate(3 20.159)">
      <path id="Path_16" data-name="Path 16" d="M-722.128,1864.454a9.753,9.753,0,0,0-1.763-5.681,11.318,11.318,0,0,0-4.9-3.722,9.15,9.15,0,0,1,3.33-.588,9.477,9.477,0,0,1,7.64,3.526,13.206,13.206,0,0,1,9.208-3.526,13.364,13.364,0,0,1,10.187,4.506l.588-.588a13.312,13.312,0,0,1,9.6-3.918,13.647,13.647,0,0,1,9.6,3.918,12.867,12.867,0,0,1,3.918,9.4V1891.1a3,3,0,0,1-3.33,3.331,3,3,0,0,1-3.331-3.331v-23.312a5.808,5.808,0,0,0-1.959-4.7,6.369,6.369,0,0,0-4.7-1.959,5.809,5.809,0,0,0-4.7,1.959,6.368,6.368,0,0,0-1.959,4.7V1890.9h0v.2a3.16,3.16,0,0,1-.588,1.763,3.223,3.223,0,0,1-2.938,1.567,3,3,0,0,1-3.33-3.331v-23.312a5.809,5.809,0,0,0-1.959-4.7,6.5,6.5,0,0,0-4.9-1.959,6.5,6.5,0,0,0-4.9,1.959,6.368,6.368,0,0,0-1.959,4.7V1891.1a3,3,0,0,1-3.33,3.331c-2.351,0-3.331-1.176-3.331-3.331v-26.643Z" transform="translate(728.789 -1784.666)" fill="#0358a3"/>
      <path id="Path_17" data-name="Path 17" d="M-529.417,1881.512v3.33a10.366,10.366,0,0,0,1.763,5.877,10.293,10.293,0,0,0,4.9,3.722,10.858,10.858,0,0,1-3.33.588,10.06,10.06,0,0,1-7.249-2.938,9.618,9.618,0,0,1-2.938-7.052v-16.652a12.866,12.866,0,0,1,3.918-9.4,13.312,13.312,0,0,1,9.6-3.918,13.646,13.646,0,0,1,9.6,3.918,12.866,12.866,0,0,1,3.918,9.4v6.661a5.808,5.808,0,0,1-1.959,4.7,6.368,6.368,0,0,1-4.7,1.959h-13.517Zm13.517-13.321a6.075,6.075,0,0,0-1.959-4.7,6.367,6.367,0,0,0-4.7-1.959,5.809,5.809,0,0,0-4.7,1.959,6.368,6.368,0,0,0-1.959,4.7v6.856c0,2.155.979,3.135,3.135,3.135h7.052c2.155,0,3.33-.979,3.33-3.135v-6.856Z" transform="translate(598.963 -1785.073)" fill="#0358a3"/>
      <path id="Path_18" data-name="Path 18" d="M-429.593,1857.793a3,3,0,0,1,3.33-3.33,3,3,0,0,1,3.33,3.33v23.313a5.808,5.808,0,0,0,1.959,4.7,6.5,6.5,0,0,0,4.9,1.959,5.807,5.807,0,0,0,4.7-1.959,6.368,6.368,0,0,0,1.959-4.7v-23.312a3,3,0,0,1,3.331-3.33c2.351,0,3.33,1.176,3.33,3.33v.2h0v53.09a9.618,9.618,0,0,1-2.938,7.052,9.747,9.747,0,0,1-7.249,2.939,9.95,9.95,0,0,1-3.33-.588,10.3,10.3,0,0,0,4.9-3.722,10.46,10.46,0,0,0,1.959-5.681v-18.415a13.746,13.746,0,0,1-6.857,1.763,13.647,13.647,0,0,1-9.6-3.918,12.865,12.865,0,0,1-3.918-9.4v-23.312Z" transform="translate(527.153 -1784.666)" fill="#0358a3"/>
      <path id="Path_21" data-name="Path 21" d="M-104.877,1863.852a9.755,9.755,0,0,0-1.763-5.681,10.294,10.294,0,0,0-4.9-3.722,9.152,9.152,0,0,1,3.33-.588,9.477,9.477,0,0,1,7.64,3.526,13.206,13.206,0,0,1,9.207-3.526,13.645,13.645,0,0,1,9.6,3.918,12.865,12.865,0,0,1,3.918,9.4V1890.5a3,3,0,0,1-3.33,3.33,3,3,0,0,1-3.33-3.33v-23.312a5.808,5.808,0,0,0-1.959-4.7,6.368,6.368,0,0,0-4.7-1.959,5.808,5.808,0,0,0-4.7,1.959,6.368,6.368,0,0,0-1.959,4.7V1890.5a3,3,0,0,1-3.33,3.33c-2.351,0-3.33-1.176-3.33-3.33v-26.643Z" transform="translate(312.534 -1784.26)" fill="#0358a3"/>
      <path id="Path_24" data-name="Path 24" d="M161.593,1858.619a2.078,2.078,0,0,1,2.351-2.351h18.219a2.078,2.078,0,0,1,2.351,2.351v1.567a2.078,2.078,0,0,1-2.351,2.351H168.842V1873.9h10.971a2.078,2.078,0,0,1,2.351,2.351v1.567a2.078,2.078,0,0,1-2.351,2.351H168.842v13.713a2.078,2.078,0,0,1-2.351,2.351h-2.547a2.078,2.078,0,0,1-2.351-2.351Z" transform="translate(128.343 -1785.884)" fill="#57b948"/>
      <path id="Path_26" data-name="Path 26" d="M174.137,1771.578a70.1,70.1,0,0,0-43.1-65.236,69.75,69.75,0,0,0-26.839-5.289h0a74.933,74.933,0,0,0-24.488,4.31A72.99,72.99,0,0,0,58.358,1717.9a74.052,74.052,0,0,0-15.672,19.2,66.988,66.988,0,0,0-8.032,23.508v.588c1.567.2,2.547.392,2.547.392l2.547.392c.783.2,1.567.2,2.547.392a21.81,21.81,0,0,0,2.547.392v-.392a57.336,57.336,0,0,1,6.856-20.178,61.133,61.133,0,0,1,31.736-27.231,58.368,58.368,0,0,1,20.962-3.722h0a62.263,62.263,0,0,1,23.117,4.506,59.417,59.417,0,0,1,19.59,13.126,63.719,63.719,0,0,1,13.126,19.59,61.5,61.5,0,0,1,4.506,23.116h9.4Z" transform="translate(213.947 -1681.212)" fill="url(#linear-gradient)"/>
      <path id="Path_27" data-name="Path 27" d="M164.734,1915.827h0a62.261,62.261,0,0,1-4.506,23.117,59.409,59.409,0,0,1-13.126,19.59,63.717,63.717,0,0,1-19.59,13.126,61.5,61.5,0,0,1-23.117,4.506h0a56.278,56.278,0,0,1-20.57-3.722,60.755,60.755,0,0,1-18.219-10.579A62.748,62.748,0,0,1,52.089,1945.8a58.309,58.309,0,0,1-7.053-19.786l-.2-.784v-.392c-1.567.2-2.547.392-2.547.392-.783.2-1.567.2-2.546.392-.784.2-1.567.2-2.547.392l-2.547.392v.588c0,.392.2.588.2.979a75.894,75.894,0,0,0,8.228,23.117A72.278,72.278,0,0,0,58.75,1969.9a73.989,73.989,0,0,0,21.158,12.342,71.769,71.769,0,0,0,24.1,4.31h0a69.746,69.746,0,0,0,26.839-5.29,71.228,71.228,0,0,0,38.005-38.005,69.749,69.749,0,0,0,5.29-26.839h-9.4v-.588Z" transform="translate(213.947 -1826.048)" fill="url(#linear-gradient-2)"/>
      <path id="Path_28" data-name="Path 28" d="M35.255,1876.4a5.058,5.058,0,0,1,5.094-5.094,4.941,4.941,0,0,1,5.094,5.094,5.094,5.094,0,0,1-10.187,0" transform="translate(213.542 -1796.026)" fill="#57b948"/>
      <path id="Path_29" data-name="Path 29" d="M35.255,1934.758a5.094,5.094,0,1,1,5.094,5.093,5.186,5.186,0,0,1-5.094-5.093" transform="translate(213.542 -1835.38)" fill="#0358a3"/>
      <g id="Group_1" data-name="Group 1" transform="translate(85.414 144.24)">
        <path id="Path_1" data-name="Path 1" d="M-466.487,2095.626v-11.95h4.114a6.694,6.694,0,0,1,2.155.2,6.953,6.953,0,0,1,1.763.783,4.476,4.476,0,0,1,1.371,1.959,6.228,6.228,0,0,1,.392,2.743,7.3,7.3,0,0,1-.392,2.351,3.693,3.693,0,0,1-.783,1.763l-1.176,1.175a9.461,9.461,0,0,1-1.371.588,6.036,6.036,0,0,1-1.959.2l-4.114.2Zm1.567-1.371h2.547a4.355,4.355,0,0,0,1.763-.2,4.287,4.287,0,0,0,.98-.588,2.951,2.951,0,0,0,.783-1.567,8.415,8.415,0,0,0,.392-2.351,6.544,6.544,0,0,0-.588-2.938,3.486,3.486,0,0,0-1.567-1.372,5.462,5.462,0,0,0-1.959-.2h-2.547v9.208Z" transform="translate(466.487 -2083.48)" fill="#6a6d6e"/>
        <path id="Path_2" data-name="Path 2" d="M-421.547,2083.676h1.567v6.857a11.848,11.848,0,0,1-.392,2.939,3.125,3.125,0,0,1-1.371,1.763,5.186,5.186,0,0,1-2.743.588,5.685,5.685,0,0,1-2.742-.588,3.454,3.454,0,0,1-1.567-1.763,6.692,6.692,0,0,1-.392-2.939v-6.857h1.567v6.857a8.083,8.083,0,0,0,.2,2.351,5.205,5.205,0,0,0,.979,1.176,3.917,3.917,0,0,0,1.763.391,3.326,3.326,0,0,0,2.547-.783,4.067,4.067,0,0,0,.783-2.939v-7.052Z" transform="translate(441.333 -2083.48)" fill="#6a6d6e"/>
        <path id="Path_3" data-name="Path 3" d="M-393.091,2095.626v-11.95h4.506a6.05,6.05,0,0,1,2.155.392,2.633,2.633,0,0,1,1.371,1.175,2.357,2.357,0,0,1,.392,1.567,2.828,2.828,0,0,1-.392,1.371c-.2.392-.783.784-1.175,1.176a2.432,2.432,0,0,1,1.567,1.175,3.159,3.159,0,0,1,.588,1.763,4.608,4.608,0,0,1-.392,1.567c-.2.392-.588.784-.783,1.175a9.539,9.539,0,0,1-1.372.588,6.041,6.041,0,0,1-1.959.2h-4.506v-.2Zm1.567-6.857h2.547a3.37,3.37,0,0,0,1.567-.2,4.3,4.3,0,0,0,.98-.587,1.5,1.5,0,0,0,.392-.98,1.469,1.469,0,0,0-.2-.979c-.2-.2-.392-.588-.784-.588a4.345,4.345,0,0,0-1.763-.2h-2.351v3.526Zm0,5.485h3.918c.392,0,.588-.2.979-.392l.588-.588a1.467,1.467,0,0,0,.2-.979,2.786,2.786,0,0,0-.392-1.175,1.955,1.955,0,0,0-.98-.784,4.351,4.351,0,0,0-1.763-.2h-2.742l.2,4.114Z" transform="translate(416.991 -2083.48)" fill="#6a6d6e"/>
        <path id="Path_4" data-name="Path 4" d="M-363.01,2095.626l4.506-11.95h1.763l4.9,11.95h-1.763l-1.371-3.526h-4.9l-1.371,3.526Zm3.526-4.9h4.114l-1.176-3.33a18.221,18.221,0,0,1-.784-2.547l-.587,2.351Z" transform="translate(396.705 -2083.48)" fill="#6a6d6e"/>
        <path id="Path_5" data-name="Path 5" d="M-323.906,2095.626v-11.95h1.567v11.95Z" transform="translate(370.335 -2083.48)" fill="#6a6d6e"/>
        <path id="Path_6" data-name="Path 6" d="M-295.923,2095.626v-10.579h-3.918v-1.371h9.4v1.371h-3.918v10.579Z" transform="translate(354.106 -2083.48)" fill="#6a6d6e"/>
        <path id="Path_7" data-name="Path 7" d="M-268.558,2089.54a7.15,7.15,0,0,1,1.567-4.7,5.06,5.06,0,0,1,4.114-1.763,4.723,4.723,0,0,1,2.938.783,4.176,4.176,0,0,1,1.959,2.155,8.207,8.207,0,0,1,.784,3.134,6.437,6.437,0,0,1-.784,3.33,3.879,3.879,0,0,1-2.155,2.155,7.267,7.267,0,0,1-2.939.783,4.722,4.722,0,0,1-2.938-.783,5.076,5.076,0,0,1-1.959-2.155A15.626,15.626,0,0,1-268.558,2089.54Zm1.763,0a4.607,4.607,0,0,0,1.176,3.33,3.985,3.985,0,0,0,2.938,1.176,3.986,3.986,0,0,0,2.939-1.176,4.79,4.79,0,0,0,1.176-3.526,5.426,5.426,0,0,0-.588-2.547,4.27,4.27,0,0,0-1.372-1.763,3.948,3.948,0,0,0-2.155-.588,3.985,3.985,0,0,0-2.938,1.176A5.511,5.511,0,0,0-266.795,2089.54Z" transform="translate(333.01 -2083.075)" fill="#6a6d6e"/>
        <path id="Path_8" data-name="Path 8" d="M-212.9,2095.626v-10.579h-3.918v-1.371h9.4v1.371h-3.918v10.579Z" transform="translate(298.119 -2083.48)" fill="#6a6d6e"/>
        <path id="Path_9" data-name="Path 9" d="M-182.527,2095.626v-11.95h1.567v4.9h6.269v-4.9h1.567v11.95h-1.567v-5.681h-6.269v5.681Z" transform="translate(274.993 -2083.48)" fill="#6a6d6e"/>
        <path id="Path_10" data-name="Path 10" d="M-145.829,2095.626v-11.95h8.62v1.371h-7.053v3.722h6.66v1.371h-6.66v4.114h7.248v1.371Z" transform="translate(250.245 -2083.48)" fill="#6a6d6e"/>
        <path id="Path_11" data-name="Path 11" d="M-97.574,2095.626l-3.135-11.95h1.567l1.763,7.836.588,2.351a21.439,21.439,0,0,1,.588-2.155l2.351-8.032h1.959l1.763,6.073c.392,1.567.784,2.938.98,4.114.2-.784.392-1.567.588-2.547l1.959-7.64h1.567l-3.33,11.95h-1.567l-2.547-9.011c-.2-.784-.392-1.176-.392-1.372a12.555,12.555,0,0,1-.392,1.372l-2.547,9.011Z" transform="translate(219.818 -2083.48)" fill="#6a6d6e"/>
        <path id="Path_12" data-name="Path 12" d="M-50.775,2089.54a7.15,7.15,0,0,1,1.567-4.7,5.06,5.06,0,0,1,4.114-1.763,4.723,4.723,0,0,1,2.938.783,4.176,4.176,0,0,1,1.959,2.155,8.213,8.213,0,0,1,.784,3.134,6.437,6.437,0,0,1-.784,3.33,3.88,3.88,0,0,1-2.155,2.155,7.265,7.265,0,0,1-2.938.783,4.722,4.722,0,0,1-2.938-.783,5.077,5.077,0,0,1-1.959-2.155A7.861,7.861,0,0,1-50.775,2089.54Zm1.567,0a4.607,4.607,0,0,0,1.176,3.33,3.985,3.985,0,0,0,2.938,1.176,3.985,3.985,0,0,0,2.938-1.176,4.79,4.79,0,0,0,1.176-3.526,5.426,5.426,0,0,0-.588-2.547,4.27,4.27,0,0,0-1.371-1.763,3.95,3.95,0,0,0-2.155-.588,3.985,3.985,0,0,0-2.938,1.176A5.511,5.511,0,0,0-49.208,2089.54Z" transform="translate(186.144 -2083.075)" fill="#6a6d6e"/>
        <path id="Path_13" data-name="Path 13" d="M-9.865,2095.626v-11.95h5.289a6.4,6.4,0,0,1,2.351.392,2.634,2.634,0,0,1,1.372,1.175,3.161,3.161,0,0,1,.587,1.763,2.945,2.945,0,0,1-.783,2.155,4.427,4.427,0,0,1-2.547,1.176,4.271,4.271,0,0,1,.979.588,11.192,11.192,0,0,1,1.371,1.567l2.155,3.33H-1.05l-1.567-2.547a5.41,5.41,0,0,0-1.176-1.567l-.783-.783c-.2-.2-.392-.2-.783-.392H-7.906v5.289l-1.959-.2Zm1.567-6.66h3.33a4.34,4.34,0,0,0,1.763-.2,1.954,1.954,0,0,0,.979-.783c.2-.392.392-.588.392-.98a1.779,1.779,0,0,0-.588-1.371,2.6,2.6,0,0,0-1.959-.588H-8.1l-.2,3.918Z" transform="translate(158.555 -2083.48)" fill="#6a6d6e"/>
        <path id="Path_14" data-name="Path 14" d="M26.833,2095.626v-11.95H28.4v10.579h5.877v1.371Z" transform="translate(133.808 -2083.48)" fill="#6a6d6e"/>
        <path id="Path_15" data-name="Path 15" d="M55.71,2095.626v-11.95h4.114a6.7,6.7,0,0,1,2.155.2,6.957,6.957,0,0,1,1.763.783,4.476,4.476,0,0,1,1.371,1.959,6.223,6.223,0,0,1,.392,2.743,7.3,7.3,0,0,1-.392,2.351,3.69,3.69,0,0,1-.783,1.763l-1.176,1.175a9.461,9.461,0,0,1-1.371.588,6.036,6.036,0,0,1-1.959.2l-4.114.2Zm1.567-1.371h2.547a4.355,4.355,0,0,0,1.763-.2,4.272,4.272,0,0,0,.98-.588,2.951,2.951,0,0,0,.784-1.567,8.425,8.425,0,0,0,.392-2.351,6.543,6.543,0,0,0-.588-2.938,3.486,3.486,0,0,0-1.567-1.372,5.461,5.461,0,0,0-1.959-.2H57.081v9.208Z" transform="translate(114.334 -2083.48)" fill="#6a6d6e"/>
      </g>
      <path id="Path_19" data-name="Path 19" d="M-292.058,1825.93a12.866,12.866,0,0,1-3.918,9.4,13.313,13.313,0,0,1-9.6,3.918,13.647,13.647,0,0,1-9.6-3.918,12.866,12.866,0,0,1-3.918-9.4v-13.321a12.866,12.866,0,0,1,3.918-9.4,13.313,13.313,0,0,1,9.6-3.918,13.027,13.027,0,0,1,6.661,1.763v-18.415a8.367,8.367,0,0,0-1.959-5.681,10.291,10.291,0,0,0-4.9-3.722,9.154,9.154,0,0,1,3.33-.588,10.059,10.059,0,0,1,7.248,2.938,9.618,9.618,0,0,1,2.939,7.052v43.295Zm-13.517-19.982a6.5,6.5,0,0,0-4.9,1.959,6.368,6.368,0,0,0-1.959,4.7v13.321a5.809,5.809,0,0,0,1.959,4.7,6.5,6.5,0,0,0,4.9,1.959,5.808,5.808,0,0,0,4.7-1.959,6.368,6.368,0,0,0,1.959-4.7v-13.321a5.808,5.808,0,0,0-1.959-4.7,5.809,5.809,0,0,0-4.7-1.959" transform="translate(452.503 -1729.49)" fill="#0358a3"/>
      <path id="Path_20" data-name="Path 20" d="M-182.565,1884.842a10.366,10.366,0,0,0,1.763,5.877,10.292,10.292,0,0,0,4.9,3.722,10.858,10.858,0,0,1-3.33.588,9.475,9.475,0,0,1-7.64-3.526,13.206,13.206,0,0,1-9.208,3.526,13.647,13.647,0,0,1-9.6-3.918,12.868,12.868,0,0,1-3.918-9.4v-13.322a12.868,12.868,0,0,1,3.918-9.4,13.312,13.312,0,0,1,9.6-3.918,13.645,13.645,0,0,1,9.6,3.918,12.866,12.866,0,0,1,3.918,9.4Zm-13.517-23.312a5.807,5.807,0,0,0-4.7,1.959,6.366,6.366,0,0,0-1.959,4.7v13.321a5.807,5.807,0,0,0,1.959,4.7,6.5,6.5,0,0,0,4.9,1.959,6.5,6.5,0,0,0,4.9-1.959,6.368,6.368,0,0,0,1.959-4.7v-13.321a5.808,5.808,0,0,0-1.959-4.7,7.253,7.253,0,0,0-5.094-1.959" transform="translate(378.664 -1785.073)" fill="#0358a3"/>
      <path id="Path_22" data-name="Path 22" d="M353.214,1960.346v.98h-1.371v-.2h1.175v-.392h-3.526v.392h1.567v4.506h-.2v-4.31H349.3v-.979Zm-.392.588h-1.176v4.7h-.588v-4.7h-1.567v-.2h1.763v4.7h.2v-4.7l1.371.2Z" transform="translate(1.762 -1856.071)" fill="#0358a3"/>
      <path id="Path_23" data-name="Path 23" d="M368.828,1965.44v-3.135l-1.567,3.135h-.784l2.547-4.9h.392v4.7h.2v-4.7h-.588l-2.351,4.114-2.155-4.114h-.588v4.7h.588v-3.918l1.763,3.722.2-.2-2.155-3.918v4.114h-.2v-4.506h.392l2.155,4.31-.392.588-1.567-3.135v3.135h-.979v-5.094h.979l1.959,3.918,2.155-3.918h.979v5.094h-.588v-4.506l-2.351,4.31h.2l1.959-3.918v4.114Z" transform="translate(-7.974 -1856.071)" fill="#0358a3"/>
      <path id="Path_25" data-name="Path 25" d="M240.6,1892.5a4.811,4.811,0,0,1,.979-2.939l16.652-23.9a19.806,19.806,0,0,1,1.959-2.547c.392-.392.588-.784.98-.979v-.2H243.93a2.078,2.078,0,0,1-2.351-2.351v-1.567a2.078,2.078,0,0,1,2.351-2.351h24.1a2.078,2.078,0,0,1,2.351,2.351v.588a3.816,3.816,0,0,1-.2,1.567,4.916,4.916,0,0,1-.783,1.372l-16.848,24.1a10.878,10.878,0,0,1-1.175,1.567c-.392.392-.588.784-.98,1.175s-.587.784-.783.979v.2h18.415a2.078,2.078,0,0,1,2.351,2.351v1.567a2.078,2.078,0,0,1-2.351,2.351H242.755a2.078,2.078,0,0,1-2.351-2.351v-.979Z" transform="translate(75.196 -1785.478)" fill="#57b948"/>
    </g>
  </g>
</svg>
